<mxfile host="app.diagrams.net" modified="2023-11-26T17:10:33.312Z" agent="Mozilla/5.0 (Windows NT 10.0; Win64; x64) AppleWebKit/537.36 (KHTML, like Gecko) Chrome/119.0.0.0 Safari/537.36" etag="ds1VnkHjXXKLBaQOG7gE" version="22.1.4" type="github">
  <diagram id="8pTBhF0LpMx93Jpw1MKz" name="Page-1">
    <mxGraphModel dx="778" dy="427" grid="1" gridSize="10" guides="1" tooltips="1" connect="1" arrows="1" fold="1" page="1" pageScale="1" pageWidth="850" pageHeight="1100" math="0" shadow="0">
      <root>
        <mxCell id="0" />
        <mxCell id="1" parent="0" />
        <mxCell id="Wy6P19Ys7phJF_CWAO8N-42" value="" style="rounded=0;whiteSpace=wrap;html=1;fontSize=21;fontStyle=1;dashed=1;fontFamily=Helvetica;" parent="1" vertex="1">
          <mxGeometry x="80" y="90" width="690" height="700" as="geometry" />
        </mxCell>
        <mxCell id="Wy6P19Ys7phJF_CWAO8N-145" style="edgeStyle=orthogonalEdgeStyle;rounded=0;orthogonalLoop=1;jettySize=auto;html=1;exitX=1;exitY=0.5;exitDx=0;exitDy=0;entryX=0;entryY=0.5;entryDx=0;entryDy=0;fillColor=#e1d5e7;strokeColor=#9673a6;fontSize=21;fontStyle=1;fontFamily=Helvetica;" parent="1" source="Wy6P19Ys7phJF_CWAO8N-24" target="Wy6P19Ys7phJF_CWAO8N-88" edge="1">
          <mxGeometry relative="1" as="geometry">
            <Array as="points">
              <mxPoint x="320" y="485" />
              <mxPoint x="320" y="578" />
            </Array>
          </mxGeometry>
        </mxCell>
        <mxCell id="Wy6P19Ys7phJF_CWAO8N-146" style="edgeStyle=orthogonalEdgeStyle;rounded=0;orthogonalLoop=1;jettySize=auto;html=1;exitX=1;exitY=0.5;exitDx=0;exitDy=0;entryX=0;entryY=0.5;entryDx=0;entryDy=0;fillColor=#e1d5e7;strokeColor=#9673a6;fontSize=21;fontStyle=1;fontFamily=Helvetica;" parent="1" source="Wy6P19Ys7phJF_CWAO8N-24" target="Wy6P19Ys7phJF_CWAO8N-89" edge="1">
          <mxGeometry relative="1" as="geometry">
            <Array as="points">
              <mxPoint x="360" y="485" />
              <mxPoint x="360" y="578" />
            </Array>
          </mxGeometry>
        </mxCell>
        <mxCell id="Wy6P19Ys7phJF_CWAO8N-147" style="edgeStyle=orthogonalEdgeStyle;rounded=0;orthogonalLoop=1;jettySize=auto;html=1;exitX=1;exitY=0.5;exitDx=0;exitDy=0;entryX=0;entryY=0.5;entryDx=0;entryDy=0;fillColor=#e1d5e7;strokeColor=#9673a6;fontSize=21;fontStyle=1;fontFamily=Helvetica;" parent="1" source="Wy6P19Ys7phJF_CWAO8N-24" target="Wy6P19Ys7phJF_CWAO8N-90" edge="1">
          <mxGeometry relative="1" as="geometry">
            <Array as="points">
              <mxPoint x="420" y="485" />
              <mxPoint x="420" y="578" />
            </Array>
          </mxGeometry>
        </mxCell>
        <mxCell id="Wy6P19Ys7phJF_CWAO8N-148" style="edgeStyle=orthogonalEdgeStyle;rounded=0;orthogonalLoop=1;jettySize=auto;html=1;exitX=1;exitY=0.5;exitDx=0;exitDy=0;entryX=0;entryY=0.5;entryDx=0;entryDy=0;fillColor=#e1d5e7;strokeColor=#9673a6;fontSize=21;fontStyle=1;fontFamily=Helvetica;" parent="1" source="Wy6P19Ys7phJF_CWAO8N-24" target="Wy6P19Ys7phJF_CWAO8N-91" edge="1">
          <mxGeometry relative="1" as="geometry">
            <Array as="points">
              <mxPoint x="470" y="485" />
              <mxPoint x="470" y="578" />
            </Array>
          </mxGeometry>
        </mxCell>
        <mxCell id="Wy6P19Ys7phJF_CWAO8N-24" value="q" style="shape=process;whiteSpace=wrap;html=1;backgroundOutline=1;fillColor=#fff2cc;strokeColor=#d6b656;fontSize=21;fontStyle=1;fontFamily=Helvetica;" parent="1" vertex="1">
          <mxGeometry x="170" y="470" width="60" height="30" as="geometry" />
        </mxCell>
        <mxCell id="Wy6P19Ys7phJF_CWAO8N-163" style="edgeStyle=orthogonalEdgeStyle;rounded=0;orthogonalLoop=1;jettySize=auto;html=1;exitX=1;exitY=0.5;exitDx=0;exitDy=0;entryX=0;entryY=0.5;entryDx=0;entryDy=0;fillColor=#f8cecc;strokeColor=#b85450;fontSize=21;fontStyle=1;fontFamily=Helvetica;" parent="1" source="Wy6P19Ys7phJF_CWAO8N-26" target="Wy6P19Ys7phJF_CWAO8N-104" edge="1">
          <mxGeometry relative="1" as="geometry">
            <Array as="points">
              <mxPoint x="540" y="273" />
              <mxPoint x="540" y="578" />
            </Array>
          </mxGeometry>
        </mxCell>
        <mxCell id="Wy6P19Ys7phJF_CWAO8N-164" style="edgeStyle=orthogonalEdgeStyle;rounded=0;orthogonalLoop=1;jettySize=auto;html=1;exitX=1;exitY=0.5;exitDx=0;exitDy=0;entryX=0;entryY=0.5;entryDx=0;entryDy=0;fillColor=#f8cecc;strokeColor=#b85450;fontSize=21;fontStyle=1;fontFamily=Helvetica;" parent="1" source="Wy6P19Ys7phJF_CWAO8N-26" target="Wy6P19Ys7phJF_CWAO8N-105" edge="1">
          <mxGeometry relative="1" as="geometry">
            <Array as="points">
              <mxPoint x="580" y="273" />
              <mxPoint x="580" y="578" />
            </Array>
          </mxGeometry>
        </mxCell>
        <mxCell id="Wy6P19Ys7phJF_CWAO8N-165" style="edgeStyle=orthogonalEdgeStyle;rounded=0;orthogonalLoop=1;jettySize=auto;html=1;exitX=1;exitY=0.5;exitDx=0;exitDy=0;entryX=0;entryY=0.5;entryDx=0;entryDy=0;fillColor=#f8cecc;strokeColor=#b85450;fontSize=21;fontStyle=1;fontFamily=Helvetica;" parent="1" source="Wy6P19Ys7phJF_CWAO8N-26" target="Wy6P19Ys7phJF_CWAO8N-106" edge="1">
          <mxGeometry relative="1" as="geometry">
            <Array as="points">
              <mxPoint x="640" y="273" />
              <mxPoint x="640" y="578" />
            </Array>
          </mxGeometry>
        </mxCell>
        <mxCell id="Wy6P19Ys7phJF_CWAO8N-166" style="edgeStyle=orthogonalEdgeStyle;rounded=0;orthogonalLoop=1;jettySize=auto;html=1;exitX=1;exitY=0.5;exitDx=0;exitDy=0;entryX=0;entryY=0.5;entryDx=0;entryDy=0;fillColor=#f8cecc;strokeColor=#b85450;fontSize=21;fontStyle=1;fontFamily=Helvetica;" parent="1" source="Wy6P19Ys7phJF_CWAO8N-26" target="Wy6P19Ys7phJF_CWAO8N-107" edge="1">
          <mxGeometry relative="1" as="geometry">
            <Array as="points">
              <mxPoint x="690" y="273" />
              <mxPoint x="690" y="578" />
            </Array>
          </mxGeometry>
        </mxCell>
        <mxCell id="Wy6P19Ys7phJF_CWAO8N-26" value="k" style="shape=process;whiteSpace=wrap;html=1;backgroundOutline=1;fillColor=#e1d5e7;strokeColor=#9673a6;fontSize=21;fontStyle=1;fontFamily=Helvetica;" parent="1" vertex="1">
          <mxGeometry x="390" y="258" width="60" height="30" as="geometry" />
        </mxCell>
        <mxCell id="Wy6P19Ys7phJF_CWAO8N-173" style="edgeStyle=orthogonalEdgeStyle;rounded=0;orthogonalLoop=1;jettySize=auto;html=1;exitX=0;exitY=0.5;exitDx=0;exitDy=0;entryX=0;entryY=0.5;entryDx=0;entryDy=0;fontSize=21;fontStyle=1;fontFamily=Helvetica;" parent="1" source="7dIgnpF8Qpy7fUu59uZN-12" target="Wy6P19Ys7phJF_CWAO8N-172" edge="1">
          <mxGeometry relative="1" as="geometry">
            <mxPoint x="185" y="505" as="sourcePoint" />
            <Array as="points">
              <mxPoint x="90" y="704" />
              <mxPoint x="90" y="150" />
            </Array>
          </mxGeometry>
        </mxCell>
        <mxCell id="Wy6P19Ys7phJF_CWAO8N-39" value="" style="rounded=1;whiteSpace=wrap;html=1;fontSize=21;fontStyle=1;dashed=1;strokeColor=#9673A6;fontFamily=Helvetica;" parent="1" vertex="1">
          <mxGeometry x="320" y="649" width="200" height="110" as="geometry" />
        </mxCell>
        <mxCell id="Wy6P19Ys7phJF_CWAO8N-40" value="" style="rounded=1;whiteSpace=wrap;html=1;fontSize=21;fontStyle=1;dashed=1;strokeColor=#B85450;fontFamily=Helvetica;" parent="1" vertex="1">
          <mxGeometry x="540" y="649" width="200" height="110" as="geometry" />
        </mxCell>
        <mxCell id="Wy6P19Ys7phJF_CWAO8N-7" value="Transformation" style="rounded=0;whiteSpace=wrap;html=1;fillColor=#f8cecc;strokeColor=#b85450;fontSize=21;fontStyle=1;fontFamily=Helvetica;" parent="1" vertex="1">
          <mxGeometry x="540" y="218" width="200" height="32" as="geometry" />
        </mxCell>
        <mxCell id="Wy6P19Ys7phJF_CWAO8N-76" style="edgeStyle=orthogonalEdgeStyle;rounded=0;orthogonalLoop=1;jettySize=auto;html=1;exitX=1;exitY=0.5;exitDx=0;exitDy=0;entryX=0.5;entryY=1;entryDx=0;entryDy=0;fontSize=21;fontStyle=1;fontFamily=Helvetica;" parent="1" source="Wy6P19Ys7phJF_CWAO8N-78" target="Wy6P19Ys7phJF_CWAO8N-88" edge="1">
          <mxGeometry relative="1" as="geometry" />
        </mxCell>
        <mxCell id="Wy6P19Ys7phJF_CWAO8N-78" value="k&lt;sub&gt;1&lt;/sub&gt;" style="shape=process;whiteSpace=wrap;html=1;backgroundOutline=1;rotation=-90;fillColor=#e1d5e7;strokeColor=#9673a6;fontSize=21;fontStyle=1;fontFamily=Helvetica;" parent="1" vertex="1">
          <mxGeometry x="312.5" y="692" width="60" height="30" as="geometry" />
        </mxCell>
        <mxCell id="Wy6P19Ys7phJF_CWAO8N-79" style="edgeStyle=orthogonalEdgeStyle;rounded=0;orthogonalLoop=1;jettySize=auto;html=1;exitX=1;exitY=0.5;exitDx=0;exitDy=0;entryX=0.5;entryY=1;entryDx=0;entryDy=0;fontSize=21;fontStyle=1;fontFamily=Helvetica;" parent="1" source="Wy6P19Ys7phJF_CWAO8N-81" target="Wy6P19Ys7phJF_CWAO8N-89" edge="1">
          <mxGeometry relative="1" as="geometry" />
        </mxCell>
        <mxCell id="Wy6P19Ys7phJF_CWAO8N-81" value="k&lt;sub&gt;2&lt;/sub&gt;" style="shape=process;whiteSpace=wrap;html=1;backgroundOutline=1;rotation=-90;fillColor=#e1d5e7;strokeColor=#9673a6;fontSize=21;fontStyle=1;fontFamily=Helvetica;" parent="1" vertex="1">
          <mxGeometry x="357.5" y="692" width="60" height="30" as="geometry" />
        </mxCell>
        <mxCell id="Wy6P19Ys7phJF_CWAO8N-82" style="edgeStyle=orthogonalEdgeStyle;rounded=0;orthogonalLoop=1;jettySize=auto;html=1;exitX=1;exitY=0.5;exitDx=0;exitDy=0;entryX=0.5;entryY=1;entryDx=0;entryDy=0;fontSize=21;fontStyle=1;fontFamily=Helvetica;" parent="1" source="Wy6P19Ys7phJF_CWAO8N-84" target="Wy6P19Ys7phJF_CWAO8N-90" edge="1">
          <mxGeometry relative="1" as="geometry" />
        </mxCell>
        <mxCell id="Wy6P19Ys7phJF_CWAO8N-84" value="k&lt;sub&gt;n-1&lt;/sub&gt;" style="shape=process;whiteSpace=wrap;html=1;backgroundOutline=1;rotation=-90;fillColor=#e1d5e7;strokeColor=#9673a6;fontSize=21;fontStyle=1;fontFamily=Helvetica;" parent="1" vertex="1">
          <mxGeometry x="417.5" y="692" width="60" height="30" as="geometry" />
        </mxCell>
        <mxCell id="Wy6P19Ys7phJF_CWAO8N-85" style="edgeStyle=orthogonalEdgeStyle;rounded=0;orthogonalLoop=1;jettySize=auto;html=1;exitX=1;exitY=0.5;exitDx=0;exitDy=0;entryX=0.5;entryY=1;entryDx=0;entryDy=0;fontSize=21;fontStyle=1;fontFamily=Helvetica;" parent="1" source="Wy6P19Ys7phJF_CWAO8N-87" target="Wy6P19Ys7phJF_CWAO8N-91" edge="1">
          <mxGeometry relative="1" as="geometry" />
        </mxCell>
        <mxCell id="Wy6P19Ys7phJF_CWAO8N-87" value="k&lt;sub&gt;n&lt;/sub&gt;" style="shape=process;whiteSpace=wrap;html=1;backgroundOutline=1;rotation=-90;fillColor=#e1d5e7;strokeColor=#9673a6;fontSize=21;fontStyle=1;fontFamily=Helvetica;" parent="1" vertex="1">
          <mxGeometry x="467.5" y="692" width="60" height="30" as="geometry" />
        </mxCell>
        <mxCell id="Wy6P19Ys7phJF_CWAO8N-141" style="edgeStyle=orthogonalEdgeStyle;rounded=0;orthogonalLoop=1;jettySize=auto;html=1;exitX=0.5;exitY=0;exitDx=0;exitDy=0;entryX=0;entryY=0.5;entryDx=0;entryDy=0;fontSize=21;fontStyle=1;fontFamily=Helvetica;" parent="1" source="Wy6P19Ys7phJF_CWAO8N-88" target="Wy6P19Ys7phJF_CWAO8N-127" edge="1">
          <mxGeometry relative="1" as="geometry" />
        </mxCell>
        <mxCell id="Wy6P19Ys7phJF_CWAO8N-88" value="" style="shape=sumEllipse;perimeter=ellipsePerimeter;whiteSpace=wrap;html=1;backgroundOutline=1;fontSize=21;fontStyle=1;fontFamily=Helvetica;" parent="1" vertex="1">
          <mxGeometry x="332.5" y="568" width="20" height="20" as="geometry" />
        </mxCell>
        <mxCell id="Wy6P19Ys7phJF_CWAO8N-142" style="edgeStyle=orthogonalEdgeStyle;rounded=0;orthogonalLoop=1;jettySize=auto;html=1;exitX=0.5;exitY=0;exitDx=0;exitDy=0;entryX=0;entryY=0.5;entryDx=0;entryDy=0;fontSize=21;fontStyle=1;fontFamily=Helvetica;" parent="1" source="Wy6P19Ys7phJF_CWAO8N-89" target="Wy6P19Ys7phJF_CWAO8N-130" edge="1">
          <mxGeometry relative="1" as="geometry" />
        </mxCell>
        <mxCell id="Wy6P19Ys7phJF_CWAO8N-89" value="" style="shape=sumEllipse;perimeter=ellipsePerimeter;whiteSpace=wrap;html=1;backgroundOutline=1;fontSize=21;fontStyle=1;fontFamily=Helvetica;" parent="1" vertex="1">
          <mxGeometry x="377.5" y="568" width="20" height="20" as="geometry" />
        </mxCell>
        <mxCell id="Wy6P19Ys7phJF_CWAO8N-143" style="edgeStyle=orthogonalEdgeStyle;rounded=0;orthogonalLoop=1;jettySize=auto;html=1;exitX=0.5;exitY=0;exitDx=0;exitDy=0;entryX=0;entryY=0.5;entryDx=0;entryDy=0;fontSize=21;fontStyle=1;fontFamily=Helvetica;" parent="1" source="Wy6P19Ys7phJF_CWAO8N-90" target="Wy6P19Ys7phJF_CWAO8N-133" edge="1">
          <mxGeometry relative="1" as="geometry" />
        </mxCell>
        <mxCell id="Wy6P19Ys7phJF_CWAO8N-90" value="" style="shape=sumEllipse;perimeter=ellipsePerimeter;whiteSpace=wrap;html=1;backgroundOutline=1;fontSize=21;fontStyle=1;fontFamily=Helvetica;" parent="1" vertex="1">
          <mxGeometry x="437.5" y="568" width="20" height="20" as="geometry" />
        </mxCell>
        <mxCell id="Wy6P19Ys7phJF_CWAO8N-144" style="edgeStyle=orthogonalEdgeStyle;rounded=0;orthogonalLoop=1;jettySize=auto;html=1;exitX=0.5;exitY=0;exitDx=0;exitDy=0;entryX=0;entryY=0.5;entryDx=0;entryDy=0;fontSize=21;fontStyle=1;fontFamily=Helvetica;" parent="1" source="Wy6P19Ys7phJF_CWAO8N-91" target="Wy6P19Ys7phJF_CWAO8N-136" edge="1">
          <mxGeometry relative="1" as="geometry" />
        </mxCell>
        <mxCell id="Wy6P19Ys7phJF_CWAO8N-91" value="" style="shape=sumEllipse;perimeter=ellipsePerimeter;whiteSpace=wrap;html=1;backgroundOutline=1;fontSize=21;fontStyle=1;fontFamily=Helvetica;" parent="1" vertex="1">
          <mxGeometry x="487.5" y="568" width="20" height="20" as="geometry" />
        </mxCell>
        <mxCell id="Wy6P19Ys7phJF_CWAO8N-92" style="edgeStyle=orthogonalEdgeStyle;rounded=0;orthogonalLoop=1;jettySize=auto;html=1;exitX=1;exitY=0.5;exitDx=0;exitDy=0;entryX=0.5;entryY=1;entryDx=0;entryDy=0;fontSize=21;fontStyle=1;fontFamily=Helvetica;" parent="1" source="Wy6P19Ys7phJF_CWAO8N-94" target="Wy6P19Ys7phJF_CWAO8N-104" edge="1">
          <mxGeometry relative="1" as="geometry" />
        </mxCell>
        <mxCell id="Wy6P19Ys7phJF_CWAO8N-94" value="v&lt;sub&gt;1&lt;/sub&gt;" style="shape=process;whiteSpace=wrap;html=1;backgroundOutline=1;rotation=-90;fillColor=#f8cecc;strokeColor=#b85450;fontSize=21;fontStyle=1;fontFamily=Helvetica;" parent="1" vertex="1">
          <mxGeometry x="532.5" y="692" width="60" height="30" as="geometry" />
        </mxCell>
        <mxCell id="Wy6P19Ys7phJF_CWAO8N-95" style="edgeStyle=orthogonalEdgeStyle;rounded=0;orthogonalLoop=1;jettySize=auto;html=1;exitX=1;exitY=0.5;exitDx=0;exitDy=0;entryX=0.5;entryY=1;entryDx=0;entryDy=0;fontSize=21;fontStyle=1;fontFamily=Helvetica;" parent="1" source="Wy6P19Ys7phJF_CWAO8N-97" target="Wy6P19Ys7phJF_CWAO8N-105" edge="1">
          <mxGeometry relative="1" as="geometry" />
        </mxCell>
        <mxCell id="Wy6P19Ys7phJF_CWAO8N-97" value="v&lt;sub&gt;2&lt;/sub&gt;" style="shape=process;whiteSpace=wrap;html=1;backgroundOutline=1;rotation=-90;fillColor=#f8cecc;strokeColor=#b85450;fontSize=21;fontStyle=1;fontFamily=Helvetica;" parent="1" vertex="1">
          <mxGeometry x="577.5" y="692" width="60" height="30" as="geometry" />
        </mxCell>
        <mxCell id="Wy6P19Ys7phJF_CWAO8N-98" style="edgeStyle=orthogonalEdgeStyle;rounded=0;orthogonalLoop=1;jettySize=auto;html=1;exitX=1;exitY=0.5;exitDx=0;exitDy=0;entryX=0.5;entryY=1;entryDx=0;entryDy=0;fontSize=21;fontStyle=1;fontFamily=Helvetica;" parent="1" source="Wy6P19Ys7phJF_CWAO8N-100" target="Wy6P19Ys7phJF_CWAO8N-106" edge="1">
          <mxGeometry relative="1" as="geometry" />
        </mxCell>
        <mxCell id="Wy6P19Ys7phJF_CWAO8N-100" value="v&lt;sub&gt;n-1&lt;/sub&gt;" style="shape=process;whiteSpace=wrap;html=1;backgroundOutline=1;rotation=-90;fillColor=#f8cecc;strokeColor=#b85450;fontSize=21;fontStyle=1;fontFamily=Helvetica;" parent="1" vertex="1">
          <mxGeometry x="637.5" y="692" width="60" height="30" as="geometry" />
        </mxCell>
        <mxCell id="Wy6P19Ys7phJF_CWAO8N-101" style="edgeStyle=orthogonalEdgeStyle;rounded=0;orthogonalLoop=1;jettySize=auto;html=1;exitX=1;exitY=0.5;exitDx=0;exitDy=0;entryX=0.5;entryY=1;entryDx=0;entryDy=0;fontSize=21;fontStyle=1;fontFamily=Helvetica;" parent="1" source="Wy6P19Ys7phJF_CWAO8N-103" target="Wy6P19Ys7phJF_CWAO8N-107" edge="1">
          <mxGeometry relative="1" as="geometry" />
        </mxCell>
        <mxCell id="Wy6P19Ys7phJF_CWAO8N-103" value="v&lt;sub&gt;n&lt;/sub&gt;" style="shape=process;whiteSpace=wrap;html=1;backgroundOutline=1;rotation=-90;fillColor=#f8cecc;strokeColor=#b85450;fontSize=21;fontStyle=1;fontFamily=Helvetica;" parent="1" vertex="1">
          <mxGeometry x="687.5" y="692" width="60" height="30" as="geometry" />
        </mxCell>
        <mxCell id="Wy6P19Ys7phJF_CWAO8N-159" style="edgeStyle=orthogonalEdgeStyle;rounded=0;orthogonalLoop=1;jettySize=auto;html=1;exitX=0.5;exitY=0;exitDx=0;exitDy=0;entryX=0.109;entryY=1.026;entryDx=0;entryDy=0;entryPerimeter=0;fontSize=21;fontStyle=1;fontFamily=Helvetica;" parent="1" source="Wy6P19Ys7phJF_CWAO8N-104" target="Wy6P19Ys7phJF_CWAO8N-7" edge="1">
          <mxGeometry relative="1" as="geometry" />
        </mxCell>
        <mxCell id="Wy6P19Ys7phJF_CWAO8N-217" value="μ&lt;sub&gt;1&lt;/sub&gt;" style="edgeLabel;html=1;align=center;verticalAlign=middle;resizable=0;points=[];fontSize=15;fontStyle=1;fontFamily=Helvetica;" parent="Wy6P19Ys7phJF_CWAO8N-159" vertex="1" connectable="0">
          <mxGeometry x="0.2218" y="1" relative="1" as="geometry">
            <mxPoint as="offset" />
          </mxGeometry>
        </mxCell>
        <mxCell id="Wy6P19Ys7phJF_CWAO8N-104" value="" style="shape=sumEllipse;perimeter=ellipsePerimeter;whiteSpace=wrap;html=1;backgroundOutline=1;fontSize=21;fontStyle=1;fontFamily=Helvetica;" parent="1" vertex="1">
          <mxGeometry x="552.5" y="568" width="20" height="20" as="geometry" />
        </mxCell>
        <mxCell id="Wy6P19Ys7phJF_CWAO8N-160" style="edgeStyle=orthogonalEdgeStyle;rounded=0;orthogonalLoop=1;jettySize=auto;html=1;exitX=0.5;exitY=0;exitDx=0;exitDy=0;entryX=0.337;entryY=1.011;entryDx=0;entryDy=0;entryPerimeter=0;fontSize=21;fontStyle=1;fontFamily=Helvetica;" parent="1" source="Wy6P19Ys7phJF_CWAO8N-105" target="Wy6P19Ys7phJF_CWAO8N-7" edge="1">
          <mxGeometry relative="1" as="geometry">
            <Array as="points">
              <mxPoint x="607" y="258" />
              <mxPoint x="607" y="258" />
            </Array>
          </mxGeometry>
        </mxCell>
        <mxCell id="Wy6P19Ys7phJF_CWAO8N-218" value="μ&lt;sub&gt;2&lt;/sub&gt;" style="edgeLabel;html=1;align=center;verticalAlign=middle;resizable=0;points=[];fontSize=15;fontStyle=1;fontFamily=Helvetica;" parent="Wy6P19Ys7phJF_CWAO8N-160" vertex="1" connectable="0">
          <mxGeometry x="0.233" relative="1" as="geometry">
            <mxPoint as="offset" />
          </mxGeometry>
        </mxCell>
        <mxCell id="Wy6P19Ys7phJF_CWAO8N-105" value="" style="shape=sumEllipse;perimeter=ellipsePerimeter;whiteSpace=wrap;html=1;backgroundOutline=1;fontSize=21;fontStyle=1;fontFamily=Helvetica;" parent="1" vertex="1">
          <mxGeometry x="597.5" y="568" width="20" height="20" as="geometry" />
        </mxCell>
        <mxCell id="Wy6P19Ys7phJF_CWAO8N-161" style="edgeStyle=orthogonalEdgeStyle;rounded=0;orthogonalLoop=1;jettySize=auto;html=1;exitX=0.5;exitY=0;exitDx=0;exitDy=0;entryX=0.637;entryY=1.007;entryDx=0;entryDy=0;entryPerimeter=0;fontSize=21;fontStyle=1;fontFamily=Helvetica;" parent="1" source="Wy6P19Ys7phJF_CWAO8N-106" target="Wy6P19Ys7phJF_CWAO8N-7" edge="1">
          <mxGeometry relative="1" as="geometry">
            <Array as="points">
              <mxPoint x="668" y="258" />
              <mxPoint x="667" y="258" />
            </Array>
          </mxGeometry>
        </mxCell>
        <mxCell id="Wy6P19Ys7phJF_CWAO8N-221" value="μ&lt;sub&gt;n-1&lt;/sub&gt;" style="edgeLabel;html=1;align=center;verticalAlign=middle;resizable=0;points=[];fontSize=15;fontStyle=1;fontFamily=Helvetica;" parent="Wy6P19Ys7phJF_CWAO8N-161" vertex="1" connectable="0">
          <mxGeometry x="0.2249" y="2" relative="1" as="geometry">
            <mxPoint as="offset" />
          </mxGeometry>
        </mxCell>
        <mxCell id="Wy6P19Ys7phJF_CWAO8N-106" value="" style="shape=sumEllipse;perimeter=ellipsePerimeter;whiteSpace=wrap;html=1;backgroundOutline=1;fontSize=21;fontStyle=1;fontFamily=Helvetica;" parent="1" vertex="1">
          <mxGeometry x="657.5" y="568" width="20" height="20" as="geometry" />
        </mxCell>
        <mxCell id="Wy6P19Ys7phJF_CWAO8N-162" style="edgeStyle=orthogonalEdgeStyle;rounded=0;orthogonalLoop=1;jettySize=auto;html=1;exitX=0.5;exitY=0;exitDx=0;exitDy=0;entryX=0.887;entryY=1.013;entryDx=0;entryDy=0;entryPerimeter=0;fontSize=21;fontStyle=1;fontFamily=Helvetica;" parent="1" source="Wy6P19Ys7phJF_CWAO8N-107" target="Wy6P19Ys7phJF_CWAO8N-7" edge="1">
          <mxGeometry relative="1" as="geometry">
            <Array as="points">
              <mxPoint x="718" y="268" />
            </Array>
          </mxGeometry>
        </mxCell>
        <mxCell id="Wy6P19Ys7phJF_CWAO8N-222" value="μ&lt;sub&gt;n&lt;/sub&gt;" style="edgeLabel;html=1;align=center;verticalAlign=middle;resizable=0;points=[];fontSize=15;fontStyle=1;fontFamily=Helvetica;" parent="Wy6P19Ys7phJF_CWAO8N-162" vertex="1" connectable="0">
          <mxGeometry x="0.2182" y="-1" relative="1" as="geometry">
            <mxPoint as="offset" />
          </mxGeometry>
        </mxCell>
        <mxCell id="Wy6P19Ys7phJF_CWAO8N-107" value="" style="shape=sumEllipse;perimeter=ellipsePerimeter;whiteSpace=wrap;html=1;backgroundOutline=1;fontSize=21;fontStyle=1;fontFamily=Helvetica;" parent="1" vertex="1">
          <mxGeometry x="707.5" y="568" width="20" height="20" as="geometry" />
        </mxCell>
        <mxCell id="Wy6P19Ys7phJF_CWAO8N-125" style="edgeStyle=orthogonalEdgeStyle;rounded=0;orthogonalLoop=1;jettySize=auto;html=1;exitX=1;exitY=0.5;exitDx=0;exitDy=0;entryX=0.5;entryY=1;entryDx=0;entryDy=0;fontSize=21;fontStyle=1;fontFamily=Helvetica;" parent="1" source="Wy6P19Ys7phJF_CWAO8N-127" target="Wy6P19Ys7phJF_CWAO8N-137" edge="1">
          <mxGeometry relative="1" as="geometry" />
        </mxCell>
        <mxCell id="7dIgnpF8Qpy7fUu59uZN-57" value="β&lt;sub&gt;1&lt;/sub&gt;" style="edgeLabel;html=1;align=center;verticalAlign=middle;resizable=0;points=[];fontStyle=1;fontSize=15;fontFamily=Helvetica;" vertex="1" connectable="0" parent="Wy6P19Ys7phJF_CWAO8N-125">
          <mxGeometry x="0.0746" y="1" relative="1" as="geometry">
            <mxPoint x="1" y="4" as="offset" />
          </mxGeometry>
        </mxCell>
        <mxCell id="Wy6P19Ys7phJF_CWAO8N-126" style="edgeStyle=orthogonalEdgeStyle;rounded=0;orthogonalLoop=1;jettySize=auto;html=1;exitX=0.5;exitY=1;exitDx=0;exitDy=0;entryX=1;entryY=0.5;entryDx=0;entryDy=0;fillColor=#e1d5e7;strokeColor=#9673a6;fontSize=21;fontStyle=1;fontFamily=Helvetica;" parent="1" source="Wy6P19Ys7phJF_CWAO8N-127" target="Wy6P19Ys7phJF_CWAO8N-137" edge="1">
          <mxGeometry relative="1" as="geometry">
            <Array as="points">
              <mxPoint x="368" y="438" />
              <mxPoint x="368" y="339" />
            </Array>
          </mxGeometry>
        </mxCell>
        <mxCell id="Wy6P19Ys7phJF_CWAO8N-127" value="p&lt;sub&gt;1&lt;/sub&gt;" style="shape=process;whiteSpace=wrap;html=1;backgroundOutline=1;rotation=-90;fillColor=#e1d5e7;strokeColor=#9673a6;fontSize=21;fontStyle=1;fontFamily=Helvetica;" parent="1" vertex="1">
          <mxGeometry x="312.50000000000006" y="423" width="60" height="30" as="geometry" />
        </mxCell>
        <mxCell id="Wy6P19Ys7phJF_CWAO8N-128" style="edgeStyle=orthogonalEdgeStyle;rounded=0;orthogonalLoop=1;jettySize=auto;html=1;exitX=1;exitY=0.5;exitDx=0;exitDy=0;entryX=0.5;entryY=1;entryDx=0;entryDy=0;fontSize=21;fontStyle=1;fontFamily=Helvetica;" parent="1" source="Wy6P19Ys7phJF_CWAO8N-130" target="Wy6P19Ys7phJF_CWAO8N-138" edge="1">
          <mxGeometry relative="1" as="geometry" />
        </mxCell>
        <mxCell id="7dIgnpF8Qpy7fUu59uZN-58" value="β&lt;sub&gt;2&lt;/sub&gt;" style="edgeLabel;html=1;align=center;verticalAlign=middle;resizable=0;points=[];fontStyle=1;fontSize=15;fontFamily=Helvetica;" vertex="1" connectable="0" parent="Wy6P19Ys7phJF_CWAO8N-128">
          <mxGeometry x="0.0169" y="1" relative="1" as="geometry">
            <mxPoint x="1" y="2" as="offset" />
          </mxGeometry>
        </mxCell>
        <mxCell id="Wy6P19Ys7phJF_CWAO8N-129" style="edgeStyle=orthogonalEdgeStyle;rounded=0;orthogonalLoop=1;jettySize=auto;html=1;exitX=0.5;exitY=1;exitDx=0;exitDy=0;entryX=1;entryY=0.5;entryDx=0;entryDy=0;fillColor=#e1d5e7;strokeColor=#9673a6;fontSize=21;fontStyle=1;fontFamily=Helvetica;" parent="1" source="Wy6P19Ys7phJF_CWAO8N-130" target="Wy6P19Ys7phJF_CWAO8N-138" edge="1">
          <mxGeometry relative="1" as="geometry">
            <Array as="points">
              <mxPoint x="418" y="438" />
              <mxPoint x="418" y="339" />
            </Array>
          </mxGeometry>
        </mxCell>
        <mxCell id="Wy6P19Ys7phJF_CWAO8N-130" value="p&lt;sub&gt;2&lt;/sub&gt;" style="shape=process;whiteSpace=wrap;html=1;backgroundOutline=1;rotation=-90;fillColor=#e1d5e7;strokeColor=#9673a6;fontSize=21;fontStyle=1;fontFamily=Helvetica;" parent="1" vertex="1">
          <mxGeometry x="357.50000000000006" y="423" width="60" height="30" as="geometry" />
        </mxCell>
        <mxCell id="Wy6P19Ys7phJF_CWAO8N-131" style="edgeStyle=orthogonalEdgeStyle;rounded=0;orthogonalLoop=1;jettySize=auto;html=1;exitX=1;exitY=0.5;exitDx=0;exitDy=0;entryX=0.5;entryY=1;entryDx=0;entryDy=0;fontSize=21;fontStyle=1;fontFamily=Helvetica;" parent="1" source="Wy6P19Ys7phJF_CWAO8N-133" target="Wy6P19Ys7phJF_CWAO8N-139" edge="1">
          <mxGeometry relative="1" as="geometry" />
        </mxCell>
        <mxCell id="7dIgnpF8Qpy7fUu59uZN-59" value="β&lt;sub&gt;n-1&lt;/sub&gt;" style="edgeLabel;html=1;align=center;verticalAlign=middle;resizable=0;points=[];fontStyle=1;fontSize=15;fontFamily=Helvetica;" vertex="1" connectable="0" parent="Wy6P19Ys7phJF_CWAO8N-131">
          <mxGeometry x="-0.0068" y="1" relative="1" as="geometry">
            <mxPoint x="1" y="2" as="offset" />
          </mxGeometry>
        </mxCell>
        <mxCell id="Wy6P19Ys7phJF_CWAO8N-132" style="edgeStyle=orthogonalEdgeStyle;rounded=0;orthogonalLoop=1;jettySize=auto;html=1;exitX=0.5;exitY=1;exitDx=0;exitDy=0;entryX=1;entryY=0.5;entryDx=0;entryDy=0;fillColor=#e1d5e7;strokeColor=#9673a6;fontSize=21;fontStyle=1;fontFamily=Helvetica;" parent="1" source="Wy6P19Ys7phJF_CWAO8N-133" target="Wy6P19Ys7phJF_CWAO8N-139" edge="1">
          <mxGeometry relative="1" as="geometry">
            <Array as="points">
              <mxPoint x="478" y="438" />
              <mxPoint x="478" y="339" />
            </Array>
          </mxGeometry>
        </mxCell>
        <mxCell id="Wy6P19Ys7phJF_CWAO8N-133" value="p&lt;sub&gt;n-1&lt;/sub&gt;" style="shape=process;whiteSpace=wrap;html=1;backgroundOutline=1;rotation=-90;fillColor=#e1d5e7;strokeColor=#9673a6;fontSize=21;fontStyle=1;fontFamily=Helvetica;" parent="1" vertex="1">
          <mxGeometry x="417.50000000000006" y="423" width="60" height="30" as="geometry" />
        </mxCell>
        <mxCell id="Wy6P19Ys7phJF_CWAO8N-134" style="edgeStyle=orthogonalEdgeStyle;rounded=0;orthogonalLoop=1;jettySize=auto;html=1;exitX=1;exitY=0.5;exitDx=0;exitDy=0;entryX=0.5;entryY=1;entryDx=0;entryDy=0;fontSize=21;fontStyle=1;fontFamily=Helvetica;" parent="1" source="Wy6P19Ys7phJF_CWAO8N-136" target="Wy6P19Ys7phJF_CWAO8N-140" edge="1">
          <mxGeometry relative="1" as="geometry" />
        </mxCell>
        <mxCell id="7dIgnpF8Qpy7fUu59uZN-60" value="β&lt;sub&gt;n&lt;/sub&gt;" style="edgeLabel;html=1;align=center;verticalAlign=middle;resizable=0;points=[];fontStyle=1;fontSize=15;fontFamily=Helvetica;" vertex="1" connectable="0" parent="Wy6P19Ys7phJF_CWAO8N-134">
          <mxGeometry x="-0.0475" relative="1" as="geometry">
            <mxPoint as="offset" />
          </mxGeometry>
        </mxCell>
        <mxCell id="Wy6P19Ys7phJF_CWAO8N-135" style="edgeStyle=orthogonalEdgeStyle;rounded=0;orthogonalLoop=1;jettySize=auto;html=1;exitX=0.5;exitY=1;exitDx=0;exitDy=0;entryX=1;entryY=0.5;entryDx=0;entryDy=0;fillColor=#e1d5e7;strokeColor=#9673a6;fontSize=21;fontStyle=1;fontFamily=Helvetica;" parent="1" source="Wy6P19Ys7phJF_CWAO8N-136" target="Wy6P19Ys7phJF_CWAO8N-140" edge="1">
          <mxGeometry relative="1" as="geometry">
            <Array as="points">
              <mxPoint x="527" y="438" />
              <mxPoint x="527" y="339" />
            </Array>
          </mxGeometry>
        </mxCell>
        <mxCell id="Wy6P19Ys7phJF_CWAO8N-136" value="p&lt;sub&gt;n&lt;/sub&gt;" style="shape=process;whiteSpace=wrap;html=1;backgroundOutline=1;rotation=-90;fillColor=#e1d5e7;strokeColor=#9673a6;fontSize=21;fontStyle=1;fontFamily=Helvetica;" parent="1" vertex="1">
          <mxGeometry x="467.50000000000006" y="423" width="60" height="30" as="geometry" />
        </mxCell>
        <mxCell id="Wy6P19Ys7phJF_CWAO8N-151" style="edgeStyle=orthogonalEdgeStyle;rounded=0;orthogonalLoop=1;jettySize=auto;html=1;exitX=0.5;exitY=0;exitDx=0;exitDy=0;entryX=0;entryY=0.5;entryDx=0;entryDy=0;fontSize=21;fontStyle=1;fontFamily=Helvetica;" parent="1" source="Wy6P19Ys7phJF_CWAO8N-137" target="Wy6P19Ys7phJF_CWAO8N-150" edge="1">
          <mxGeometry relative="1" as="geometry">
            <Array as="points">
              <mxPoint x="342" y="319" />
            </Array>
          </mxGeometry>
        </mxCell>
        <mxCell id="Wy6P19Ys7phJF_CWAO8N-137" value="" style="shape=sumEllipse;perimeter=ellipsePerimeter;whiteSpace=wrap;html=1;backgroundOutline=1;fontSize=21;fontStyle=1;fontFamily=Helvetica;" parent="1" vertex="1">
          <mxGeometry x="332.50000000000006" y="329" width="20" height="20" as="geometry" />
        </mxCell>
        <mxCell id="Wy6P19Ys7phJF_CWAO8N-152" style="edgeStyle=orthogonalEdgeStyle;rounded=0;orthogonalLoop=1;jettySize=auto;html=1;exitX=0.5;exitY=0;exitDx=0;exitDy=0;entryX=0;entryY=0.5;entryDx=0;entryDy=0;fontSize=21;fontStyle=1;fontFamily=Helvetica;" parent="1" source="Wy6P19Ys7phJF_CWAO8N-138" target="Wy6P19Ys7phJF_CWAO8N-150" edge="1">
          <mxGeometry relative="1" as="geometry">
            <Array as="points">
              <mxPoint x="388" y="319" />
            </Array>
          </mxGeometry>
        </mxCell>
        <mxCell id="Wy6P19Ys7phJF_CWAO8N-138" value="" style="shape=sumEllipse;perimeter=ellipsePerimeter;whiteSpace=wrap;html=1;backgroundOutline=1;fontSize=21;fontStyle=1;fontFamily=Helvetica;" parent="1" vertex="1">
          <mxGeometry x="377.50000000000006" y="329" width="20" height="20" as="geometry" />
        </mxCell>
        <mxCell id="Wy6P19Ys7phJF_CWAO8N-153" style="edgeStyle=orthogonalEdgeStyle;rounded=0;orthogonalLoop=1;jettySize=auto;html=1;exitX=0.5;exitY=0;exitDx=0;exitDy=0;entryX=1;entryY=0.5;entryDx=0;entryDy=0;fontSize=21;fontStyle=1;fontFamily=Helvetica;" parent="1" source="Wy6P19Ys7phJF_CWAO8N-139" target="Wy6P19Ys7phJF_CWAO8N-150" edge="1">
          <mxGeometry relative="1" as="geometry">
            <Array as="points">
              <mxPoint x="448" y="319" />
            </Array>
          </mxGeometry>
        </mxCell>
        <mxCell id="Wy6P19Ys7phJF_CWAO8N-139" value="" style="shape=sumEllipse;perimeter=ellipsePerimeter;whiteSpace=wrap;html=1;backgroundOutline=1;fontSize=21;fontStyle=1;fontFamily=Helvetica;" parent="1" vertex="1">
          <mxGeometry x="437.50000000000006" y="329" width="20" height="20" as="geometry" />
        </mxCell>
        <mxCell id="Wy6P19Ys7phJF_CWAO8N-156" style="edgeStyle=orthogonalEdgeStyle;rounded=0;orthogonalLoop=1;jettySize=auto;html=1;exitX=0.5;exitY=0;exitDx=0;exitDy=0;entryX=1;entryY=0.5;entryDx=0;entryDy=0;fontSize=21;fontStyle=1;fontFamily=Helvetica;" parent="1" source="Wy6P19Ys7phJF_CWAO8N-140" target="Wy6P19Ys7phJF_CWAO8N-150" edge="1">
          <mxGeometry relative="1" as="geometry">
            <Array as="points">
              <mxPoint x="498" y="319" />
            </Array>
          </mxGeometry>
        </mxCell>
        <mxCell id="Wy6P19Ys7phJF_CWAO8N-140" value="" style="shape=sumEllipse;perimeter=ellipsePerimeter;whiteSpace=wrap;html=1;backgroundOutline=1;fontSize=21;fontStyle=1;fontFamily=Helvetica;" parent="1" vertex="1">
          <mxGeometry x="487.50000000000006" y="329" width="20" height="20" as="geometry" />
        </mxCell>
        <mxCell id="Wy6P19Ys7phJF_CWAO8N-157" style="edgeStyle=orthogonalEdgeStyle;rounded=0;orthogonalLoop=1;jettySize=auto;html=1;exitX=0.5;exitY=0;exitDx=0;exitDy=0;entryX=0.5;entryY=1;entryDx=0;entryDy=0;fontSize=21;fontStyle=1;fontFamily=Helvetica;" parent="1" source="Wy6P19Ys7phJF_CWAO8N-150" target="Wy6P19Ys7phJF_CWAO8N-26" edge="1">
          <mxGeometry relative="1" as="geometry" />
        </mxCell>
        <mxCell id="Wy6P19Ys7phJF_CWAO8N-150" value="" style="shape=orEllipse;perimeter=ellipsePerimeter;whiteSpace=wrap;html=1;backgroundOutline=1;fontSize=21;fontStyle=1;fontFamily=Helvetica;" parent="1" vertex="1">
          <mxGeometry x="410" y="309" width="20" height="20" as="geometry" />
        </mxCell>
        <mxCell id="Wy6P19Ys7phJF_CWAO8N-174" style="edgeStyle=orthogonalEdgeStyle;rounded=0;orthogonalLoop=1;jettySize=auto;html=1;exitX=0;exitY=0.5;exitDx=0;exitDy=0;entryX=1;entryY=0.5;entryDx=0;entryDy=0;fontSize=21;fontStyle=1;fontFamily=Helvetica;" parent="1" source="Wy6P19Ys7phJF_CWAO8N-167" target="Wy6P19Ys7phJF_CWAO8N-172" edge="1">
          <mxGeometry relative="1" as="geometry" />
        </mxCell>
        <mxCell id="Wy6P19Ys7phJF_CWAO8N-167" value="" style="rounded=1;whiteSpace=wrap;html=1;fontSize=21;fontStyle=1;fillColor=none;strokeColor=#b85450;fontFamily=Helvetica;" parent="1" vertex="1">
          <mxGeometry x="540" y="105" width="200" height="90" as="geometry" />
        </mxCell>
        <mxCell id="Wy6P19Ys7phJF_CWAO8N-32" value="r&lt;sub&gt;1&lt;/sub&gt;" style="shape=process;whiteSpace=wrap;html=1;backgroundOutline=1;rotation=-90;fillColor=#f8cecc;strokeColor=#b85450;fontSize=21;fontStyle=1;fontFamily=Helvetica;" parent="1" vertex="1">
          <mxGeometry x="532.5" y="140" width="60" height="30" as="geometry" />
        </mxCell>
        <mxCell id="Wy6P19Ys7phJF_CWAO8N-33" value="r&lt;sub&gt;2&lt;/sub&gt;" style="shape=process;whiteSpace=wrap;html=1;backgroundOutline=1;rotation=-90;fillColor=#f8cecc;strokeColor=#b85450;fontSize=21;fontStyle=1;fontFamily=Helvetica;" parent="1" vertex="1">
          <mxGeometry x="577.5" y="140" width="60" height="30" as="geometry" />
        </mxCell>
        <mxCell id="Wy6P19Ys7phJF_CWAO8N-34" value="r&lt;sub&gt;n-1&lt;/sub&gt;" style="shape=process;whiteSpace=wrap;html=1;backgroundOutline=1;rotation=-90;fillColor=#f8cecc;strokeColor=#b85450;fontSize=21;fontStyle=1;fontFamily=Helvetica;" parent="1" vertex="1">
          <mxGeometry x="637.5" y="140" width="60" height="30" as="geometry" />
        </mxCell>
        <mxCell id="Wy6P19Ys7phJF_CWAO8N-35" value="r&lt;sub&gt;n&lt;/sub&gt;" style="shape=process;whiteSpace=wrap;html=1;backgroundOutline=1;rotation=-90;fillColor=#f8cecc;strokeColor=#b85450;fontSize=21;fontStyle=1;fontFamily=Helvetica;" parent="1" vertex="1">
          <mxGeometry x="687.5" y="140" width="60" height="30" as="geometry" />
        </mxCell>
        <mxCell id="Wy6P19Ys7phJF_CWAO8N-168" style="edgeStyle=orthogonalEdgeStyle;rounded=0;orthogonalLoop=1;jettySize=auto;html=1;exitX=0.5;exitY=0;exitDx=0;exitDy=0;entryX=0;entryY=0.5;entryDx=0;entryDy=0;fontSize=21;fontStyle=1;fontFamily=Helvetica;" parent="1" source="Wy6P19Ys7phJF_CWAO8N-7" target="Wy6P19Ys7phJF_CWAO8N-32" edge="1">
          <mxGeometry relative="1" as="geometry">
            <Array as="points">
              <mxPoint x="640" y="208" />
              <mxPoint x="563" y="208" />
            </Array>
          </mxGeometry>
        </mxCell>
        <mxCell id="Wy6P19Ys7phJF_CWAO8N-169" style="edgeStyle=orthogonalEdgeStyle;rounded=0;orthogonalLoop=1;jettySize=auto;html=1;exitX=0.5;exitY=0;exitDx=0;exitDy=0;entryX=0;entryY=0.5;entryDx=0;entryDy=0;fontSize=21;fontStyle=1;fontFamily=Helvetica;" parent="1" source="Wy6P19Ys7phJF_CWAO8N-7" target="Wy6P19Ys7phJF_CWAO8N-33" edge="1">
          <mxGeometry relative="1" as="geometry">
            <Array as="points">
              <mxPoint x="640" y="208" />
              <mxPoint x="608" y="208" />
            </Array>
          </mxGeometry>
        </mxCell>
        <mxCell id="Wy6P19Ys7phJF_CWAO8N-170" style="edgeStyle=orthogonalEdgeStyle;rounded=0;orthogonalLoop=1;jettySize=auto;html=1;exitX=0.5;exitY=0;exitDx=0;exitDy=0;entryX=0;entryY=0.5;entryDx=0;entryDy=0;fontSize=21;fontStyle=1;fontFamily=Helvetica;" parent="1" source="Wy6P19Ys7phJF_CWAO8N-7" target="Wy6P19Ys7phJF_CWAO8N-34" edge="1">
          <mxGeometry relative="1" as="geometry">
            <Array as="points">
              <mxPoint x="640" y="208" />
              <mxPoint x="668" y="208" />
            </Array>
          </mxGeometry>
        </mxCell>
        <mxCell id="Wy6P19Ys7phJF_CWAO8N-171" style="edgeStyle=orthogonalEdgeStyle;rounded=0;orthogonalLoop=1;jettySize=auto;html=1;exitX=0.5;exitY=0;exitDx=0;exitDy=0;entryX=0;entryY=0.5;entryDx=0;entryDy=0;fontSize=21;fontStyle=1;fontFamily=Helvetica;" parent="1" source="Wy6P19Ys7phJF_CWAO8N-7" target="Wy6P19Ys7phJF_CWAO8N-35" edge="1">
          <mxGeometry relative="1" as="geometry">
            <Array as="points">
              <mxPoint x="640" y="208" />
              <mxPoint x="718" y="208" />
            </Array>
          </mxGeometry>
        </mxCell>
        <mxCell id="7dIgnpF8Qpy7fUu59uZN-46" value="" style="edgeStyle=orthogonalEdgeStyle;rounded=0;orthogonalLoop=1;jettySize=auto;html=1;fontFamily=Helvetica;" edge="1" parent="1" source="Wy6P19Ys7phJF_CWAO8N-172" target="7dIgnpF8Qpy7fUu59uZN-45">
          <mxGeometry relative="1" as="geometry" />
        </mxCell>
        <mxCell id="Wy6P19Ys7phJF_CWAO8N-172" value="" style="shape=orEllipse;perimeter=ellipsePerimeter;whiteSpace=wrap;html=1;backgroundOutline=1;fontSize=21;fontStyle=1;fontFamily=Helvetica;" parent="1" vertex="1">
          <mxGeometry x="400" y="140" width="20" height="20" as="geometry" />
        </mxCell>
        <mxCell id="Wy6P19Ys7phJF_CWAO8N-199" style="edgeStyle=orthogonalEdgeStyle;rounded=0;orthogonalLoop=1;jettySize=auto;html=1;exitX=0.5;exitY=0;exitDx=0;exitDy=0;fontSize=21;fontStyle=1;fontFamily=Helvetica;" parent="1" source="Wy6P19Ys7phJF_CWAO8N-188" edge="1">
          <mxGeometry relative="1" as="geometry">
            <Array as="points">
              <mxPoint x="420" y="770" />
              <mxPoint x="420" y="770" />
            </Array>
            <mxPoint x="420" y="760" as="targetPoint" />
          </mxGeometry>
        </mxCell>
        <mxCell id="Wy6P19Ys7phJF_CWAO8N-200" style="edgeStyle=orthogonalEdgeStyle;rounded=0;orthogonalLoop=1;jettySize=auto;html=1;exitX=0.5;exitY=0;exitDx=0;exitDy=0;entryX=0.5;entryY=1;entryDx=0;entryDy=0;fontSize=21;fontStyle=1;fontFamily=Helvetica;" parent="1" source="Wy6P19Ys7phJF_CWAO8N-188" target="Wy6P19Ys7phJF_CWAO8N-40" edge="1">
          <mxGeometry relative="1" as="geometry">
            <Array as="points">
              <mxPoint x="420" y="780" />
              <mxPoint x="640" y="780" />
            </Array>
          </mxGeometry>
        </mxCell>
        <mxCell id="7dIgnpF8Qpy7fUu59uZN-43" style="edgeStyle=orthogonalEdgeStyle;rounded=0;orthogonalLoop=1;jettySize=auto;html=1;exitX=0.5;exitY=0;exitDx=0;exitDy=0;entryX=0.5;entryY=1;entryDx=0;entryDy=0;fontFamily=Helvetica;fontStyle=1;fontSize=21;" edge="1" parent="1" source="Wy6P19Ys7phJF_CWAO8N-188" target="7dIgnpF8Qpy7fUu59uZN-12">
          <mxGeometry relative="1" as="geometry">
            <Array as="points">
              <mxPoint x="420" y="780" />
              <mxPoint x="200" y="780" />
            </Array>
          </mxGeometry>
        </mxCell>
        <mxCell id="Wy6P19Ys7phJF_CWAO8N-188" value="qkv Transformation" style="rounded=1;whiteSpace=wrap;html=1;fontSize=21;fontStyle=1;fillColor=#f5f5f5;gradientColor=#b3b3b3;strokeColor=#666666;fontFamily=Helvetica;" parent="1" vertex="1">
          <mxGeometry x="332.5" y="797" width="175" height="72" as="geometry" />
        </mxCell>
        <mxCell id="7dIgnpF8Qpy7fUu59uZN-12" value="" style="rounded=1;whiteSpace=wrap;html=1;fontSize=21;fontStyle=1;strokeColor=#D6B656;fillColor=none;dashed=1;fontFamily=Helvetica;" vertex="1" parent="1">
          <mxGeometry x="100" y="649" width="200" height="110" as="geometry" />
        </mxCell>
        <mxCell id="7dIgnpF8Qpy7fUu59uZN-13" style="edgeStyle=orthogonalEdgeStyle;rounded=0;orthogonalLoop=1;jettySize=auto;html=1;exitX=1;exitY=0.5;exitDx=0;exitDy=0;entryX=0.5;entryY=1;entryDx=0;entryDy=0;fontSize=21;fontStyle=1;fontFamily=Helvetica;" edge="1" parent="1" source="7dIgnpF8Qpy7fUu59uZN-14" target="7dIgnpF8Qpy7fUu59uZN-32">
          <mxGeometry relative="1" as="geometry">
            <mxPoint x="123" y="548" as="targetPoint" />
          </mxGeometry>
        </mxCell>
        <mxCell id="7dIgnpF8Qpy7fUu59uZN-48" value="α&lt;sub&gt;1&lt;/sub&gt;" style="edgeLabel;html=1;align=center;verticalAlign=middle;resizable=0;points=[];fontStyle=1;fontSize=15;fontFamily=Helvetica;" vertex="1" connectable="0" parent="7dIgnpF8Qpy7fUu59uZN-13">
          <mxGeometry x="0.2348" y="1" relative="1" as="geometry">
            <mxPoint x="1" y="-2" as="offset" />
          </mxGeometry>
        </mxCell>
        <mxCell id="7dIgnpF8Qpy7fUu59uZN-53" style="edgeStyle=orthogonalEdgeStyle;rounded=0;orthogonalLoop=1;jettySize=auto;html=1;entryX=1;entryY=0.5;entryDx=0;entryDy=0;exitX=0.5;exitY=1;exitDx=0;exitDy=0;fillColor=#fff2cc;strokeColor=#d6b656;fontFamily=Helvetica;" edge="1" parent="1" source="7dIgnpF8Qpy7fUu59uZN-14" target="7dIgnpF8Qpy7fUu59uZN-32">
          <mxGeometry relative="1" as="geometry">
            <Array as="points">
              <mxPoint x="150" y="707" />
              <mxPoint x="150" y="578" />
            </Array>
          </mxGeometry>
        </mxCell>
        <mxCell id="7dIgnpF8Qpy7fUu59uZN-14" value="q&lt;sub&gt;1&lt;/sub&gt;" style="shape=process;whiteSpace=wrap;html=1;backgroundOutline=1;rotation=-90;fillColor=#FFF2CC;strokeColor=#D6B656;fontSize=21;fontStyle=1;fontFamily=Helvetica;" vertex="1" parent="1">
          <mxGeometry x="92.5" y="692" width="60" height="30" as="geometry" />
        </mxCell>
        <mxCell id="7dIgnpF8Qpy7fUu59uZN-15" style="edgeStyle=orthogonalEdgeStyle;rounded=0;orthogonalLoop=1;jettySize=auto;html=1;exitX=1;exitY=0.5;exitDx=0;exitDy=0;entryX=0.5;entryY=1;entryDx=0;entryDy=0;fontSize=21;fontStyle=1;fontFamily=Helvetica;" edge="1" parent="1" source="7dIgnpF8Qpy7fUu59uZN-16" target="7dIgnpF8Qpy7fUu59uZN-33">
          <mxGeometry relative="1" as="geometry">
            <mxPoint x="168" y="548" as="targetPoint" />
          </mxGeometry>
        </mxCell>
        <mxCell id="7dIgnpF8Qpy7fUu59uZN-49" value="α&lt;sub&gt;2&lt;/sub&gt;" style="edgeLabel;html=1;align=center;verticalAlign=middle;resizable=0;points=[];fontStyle=1;fontSize=15;fontFamily=Helvetica;" vertex="1" connectable="0" parent="7dIgnpF8Qpy7fUu59uZN-15">
          <mxGeometry x="0.1118" relative="1" as="geometry">
            <mxPoint y="-8" as="offset" />
          </mxGeometry>
        </mxCell>
        <mxCell id="7dIgnpF8Qpy7fUu59uZN-52" style="edgeStyle=orthogonalEdgeStyle;rounded=0;orthogonalLoop=1;jettySize=auto;html=1;entryX=1;entryY=0.5;entryDx=0;entryDy=0;exitX=0.5;exitY=1;exitDx=0;exitDy=0;fillColor=#fff2cc;strokeColor=#d6b656;fontFamily=Helvetica;" edge="1" parent="1" source="7dIgnpF8Qpy7fUu59uZN-16" target="7dIgnpF8Qpy7fUu59uZN-33">
          <mxGeometry relative="1" as="geometry">
            <Array as="points">
              <mxPoint x="200" y="707" />
              <mxPoint x="200" y="578" />
            </Array>
          </mxGeometry>
        </mxCell>
        <mxCell id="7dIgnpF8Qpy7fUu59uZN-16" value="q&lt;sub&gt;2&lt;/sub&gt;" style="shape=process;whiteSpace=wrap;html=1;backgroundOutline=1;rotation=-90;fillColor=#FFF2CC;strokeColor=#D6B656;fontSize=21;fontStyle=1;fontFamily=Helvetica;" vertex="1" parent="1">
          <mxGeometry x="137.5" y="692" width="60" height="30" as="geometry" />
        </mxCell>
        <mxCell id="7dIgnpF8Qpy7fUu59uZN-17" style="edgeStyle=orthogonalEdgeStyle;rounded=0;orthogonalLoop=1;jettySize=auto;html=1;exitX=1;exitY=0.5;exitDx=0;exitDy=0;entryX=0.5;entryY=1;entryDx=0;entryDy=0;fontSize=21;fontStyle=1;fontFamily=Helvetica;" edge="1" parent="1" source="7dIgnpF8Qpy7fUu59uZN-18" target="7dIgnpF8Qpy7fUu59uZN-34">
          <mxGeometry relative="1" as="geometry">
            <mxPoint x="228" y="548" as="targetPoint" />
          </mxGeometry>
        </mxCell>
        <mxCell id="7dIgnpF8Qpy7fUu59uZN-50" value="α&lt;sub&gt;n-1&lt;/sub&gt;" style="edgeLabel;html=1;align=center;verticalAlign=middle;resizable=0;points=[];fontStyle=1;fontSize=15;fontFamily=Helvetica;" vertex="1" connectable="0" parent="7dIgnpF8Qpy7fUu59uZN-17">
          <mxGeometry x="0.1969" y="2" relative="1" as="geometry">
            <mxPoint x="2" y="-4" as="offset" />
          </mxGeometry>
        </mxCell>
        <mxCell id="7dIgnpF8Qpy7fUu59uZN-54" style="edgeStyle=orthogonalEdgeStyle;rounded=0;orthogonalLoop=1;jettySize=auto;html=1;entryX=1;entryY=0.5;entryDx=0;entryDy=0;exitX=0.5;exitY=1;exitDx=0;exitDy=0;fillColor=#fff2cc;strokeColor=#d6b656;fontFamily=Helvetica;" edge="1" parent="1" source="7dIgnpF8Qpy7fUu59uZN-18" target="7dIgnpF8Qpy7fUu59uZN-34">
          <mxGeometry relative="1" as="geometry">
            <Array as="points">
              <mxPoint x="260" y="707" />
              <mxPoint x="260" y="578" />
            </Array>
          </mxGeometry>
        </mxCell>
        <mxCell id="7dIgnpF8Qpy7fUu59uZN-18" value="q&lt;sub&gt;n-1&lt;/sub&gt;" style="shape=process;whiteSpace=wrap;html=1;backgroundOutline=1;rotation=-90;fillColor=#FFF2CC;strokeColor=#D6B656;fontSize=21;fontStyle=1;fontFamily=Helvetica;" vertex="1" parent="1">
          <mxGeometry x="197.5" y="692" width="60" height="30" as="geometry" />
        </mxCell>
        <mxCell id="7dIgnpF8Qpy7fUu59uZN-19" style="edgeStyle=orthogonalEdgeStyle;rounded=0;orthogonalLoop=1;jettySize=auto;html=1;exitX=1;exitY=0.5;exitDx=0;exitDy=0;entryX=0.5;entryY=1;entryDx=0;entryDy=0;fontSize=21;fontStyle=1;fontFamily=Helvetica;" edge="1" parent="1" source="7dIgnpF8Qpy7fUu59uZN-20" target="7dIgnpF8Qpy7fUu59uZN-35">
          <mxGeometry relative="1" as="geometry">
            <mxPoint x="278" y="548" as="targetPoint" />
            <Array as="points" />
          </mxGeometry>
        </mxCell>
        <mxCell id="7dIgnpF8Qpy7fUu59uZN-51" value="α&lt;sub&gt;n&lt;/sub&gt;" style="edgeLabel;html=1;align=center;verticalAlign=middle;resizable=0;points=[];fontStyle=1;fontSize=15;fontFamily=Helvetica;" vertex="1" connectable="0" parent="7dIgnpF8Qpy7fUu59uZN-19">
          <mxGeometry x="0.2348" y="-1" relative="1" as="geometry">
            <mxPoint x="-1" y="-2" as="offset" />
          </mxGeometry>
        </mxCell>
        <mxCell id="7dIgnpF8Qpy7fUu59uZN-55" style="edgeStyle=orthogonalEdgeStyle;rounded=0;orthogonalLoop=1;jettySize=auto;html=1;entryX=1;entryY=0.5;entryDx=0;entryDy=0;exitX=0.5;exitY=1;exitDx=0;exitDy=0;fillColor=#fff2cc;strokeColor=#d6b656;fontFamily=Helvetica;" edge="1" parent="1" source="7dIgnpF8Qpy7fUu59uZN-20" target="7dIgnpF8Qpy7fUu59uZN-35">
          <mxGeometry relative="1" as="geometry">
            <Array as="points">
              <mxPoint x="300" y="707" />
              <mxPoint x="300" y="578" />
            </Array>
          </mxGeometry>
        </mxCell>
        <mxCell id="7dIgnpF8Qpy7fUu59uZN-20" value="q&lt;sub&gt;n&lt;/sub&gt;" style="shape=process;whiteSpace=wrap;html=1;backgroundOutline=1;rotation=-90;fillColor=#FFF2CC;strokeColor=#D6B656;fontSize=21;fontStyle=1;fontFamily=Helvetica;" vertex="1" parent="1">
          <mxGeometry x="247.5" y="692" width="60" height="30" as="geometry" />
        </mxCell>
        <mxCell id="7dIgnpF8Qpy7fUu59uZN-37" style="edgeStyle=orthogonalEdgeStyle;rounded=0;orthogonalLoop=1;jettySize=auto;html=1;exitX=0.5;exitY=0;exitDx=0;exitDy=0;entryX=0;entryY=0.5;entryDx=0;entryDy=0;fontFamily=Helvetica;fontStyle=1;fontSize=21;" edge="1" parent="1" source="7dIgnpF8Qpy7fUu59uZN-32" target="7dIgnpF8Qpy7fUu59uZN-36">
          <mxGeometry relative="1" as="geometry" />
        </mxCell>
        <mxCell id="7dIgnpF8Qpy7fUu59uZN-32" value="" style="shape=sumEllipse;perimeter=ellipsePerimeter;whiteSpace=wrap;html=1;backgroundOutline=1;fontSize=21;fontStyle=1;fontFamily=Helvetica;" vertex="1" parent="1">
          <mxGeometry x="112.5" y="568" width="20" height="20" as="geometry" />
        </mxCell>
        <mxCell id="7dIgnpF8Qpy7fUu59uZN-38" style="edgeStyle=orthogonalEdgeStyle;rounded=0;orthogonalLoop=1;jettySize=auto;html=1;exitX=0.5;exitY=0;exitDx=0;exitDy=0;entryX=0;entryY=0.5;entryDx=0;entryDy=0;fontFamily=Helvetica;fontStyle=1;fontSize=21;" edge="1" parent="1" source="7dIgnpF8Qpy7fUu59uZN-33" target="7dIgnpF8Qpy7fUu59uZN-36">
          <mxGeometry relative="1" as="geometry">
            <mxPoint x="190" y="500" as="targetPoint" />
            <Array as="points">
              <mxPoint x="170" y="568" />
              <mxPoint x="170" y="541" />
            </Array>
          </mxGeometry>
        </mxCell>
        <mxCell id="7dIgnpF8Qpy7fUu59uZN-33" value="" style="shape=sumEllipse;perimeter=ellipsePerimeter;whiteSpace=wrap;html=1;backgroundOutline=1;fontSize=21;fontStyle=1;fontFamily=Helvetica;" vertex="1" parent="1">
          <mxGeometry x="157.5" y="568" width="20" height="20" as="geometry" />
        </mxCell>
        <mxCell id="7dIgnpF8Qpy7fUu59uZN-39" style="edgeStyle=orthogonalEdgeStyle;rounded=0;orthogonalLoop=1;jettySize=auto;html=1;exitX=0.5;exitY=0;exitDx=0;exitDy=0;entryX=1;entryY=0.5;entryDx=0;entryDy=0;fontFamily=Helvetica;fontStyle=1;fontSize=21;" edge="1" parent="1" source="7dIgnpF8Qpy7fUu59uZN-34" target="7dIgnpF8Qpy7fUu59uZN-36">
          <mxGeometry relative="1" as="geometry">
            <Array as="points">
              <mxPoint x="230" y="568" />
              <mxPoint x="230" y="541" />
            </Array>
          </mxGeometry>
        </mxCell>
        <mxCell id="7dIgnpF8Qpy7fUu59uZN-34" value="" style="shape=sumEllipse;perimeter=ellipsePerimeter;whiteSpace=wrap;html=1;backgroundOutline=1;fontSize=21;fontStyle=1;fontFamily=Helvetica;" vertex="1" parent="1">
          <mxGeometry x="217.5" y="568" width="20" height="20" as="geometry" />
        </mxCell>
        <mxCell id="7dIgnpF8Qpy7fUu59uZN-40" style="edgeStyle=orthogonalEdgeStyle;rounded=0;orthogonalLoop=1;jettySize=auto;html=1;exitX=0.5;exitY=0;exitDx=0;exitDy=0;entryX=1;entryY=0.5;entryDx=0;entryDy=0;fontFamily=Helvetica;fontStyle=1;fontSize=21;" edge="1" parent="1" source="7dIgnpF8Qpy7fUu59uZN-35" target="7dIgnpF8Qpy7fUu59uZN-36">
          <mxGeometry relative="1" as="geometry">
            <mxPoint x="210" y="500" as="targetPoint" />
            <Array as="points">
              <mxPoint x="277" y="541" />
            </Array>
          </mxGeometry>
        </mxCell>
        <mxCell id="7dIgnpF8Qpy7fUu59uZN-35" value="" style="shape=sumEllipse;perimeter=ellipsePerimeter;whiteSpace=wrap;html=1;backgroundOutline=1;fontSize=21;fontStyle=1;fontFamily=Helvetica;" vertex="1" parent="1">
          <mxGeometry x="267.5" y="568" width="20" height="20" as="geometry" />
        </mxCell>
        <mxCell id="7dIgnpF8Qpy7fUu59uZN-41" style="edgeStyle=orthogonalEdgeStyle;rounded=0;orthogonalLoop=1;jettySize=auto;html=1;exitX=0.5;exitY=0;exitDx=0;exitDy=0;entryX=0.5;entryY=1;entryDx=0;entryDy=0;fontFamily=Helvetica;fontStyle=1;fontSize=21;" edge="1" parent="1" source="7dIgnpF8Qpy7fUu59uZN-36" target="Wy6P19Ys7phJF_CWAO8N-24">
          <mxGeometry relative="1" as="geometry" />
        </mxCell>
        <mxCell id="7dIgnpF8Qpy7fUu59uZN-36" value="" style="shape=orEllipse;perimeter=ellipsePerimeter;whiteSpace=wrap;html=1;backgroundOutline=1;fontSize=21;fontStyle=1;fontFamily=Helvetica;" vertex="1" parent="1">
          <mxGeometry x="190" y="531" width="20" height="20" as="geometry" />
        </mxCell>
        <mxCell id="7dIgnpF8Qpy7fUu59uZN-45" value="MLP Head" style="whiteSpace=wrap;html=1;fontSize=21;fontFamily=Helvetica;fontStyle=1;fillColor=#f5f5f5;gradientColor=#b3b3b3;strokeColor=#666666;" vertex="1" parent="1">
          <mxGeometry x="350" y="20" width="120" height="60" as="geometry" />
        </mxCell>
      </root>
    </mxGraphModel>
  </diagram>
</mxfile>
